<?xml version="1.0" encoding="UTF-8"?>
<svg id="Layer_1" data-name="Layer 1" xmlns="http://www.w3.org/2000/svg" viewBox="0 0 124.32 118.28">
  <defs>
    <style>
      .cls-1 {
        fill: #ed2024;
        fill-rule: evenodd;
        stroke-width: 0px;
      }
    </style>
  </defs>
  <path class="cls-1" d="m67.67,86.67c3.77,3.15,12.85.94,12.85-6.27,0-4.38-3.55-7.93-7.93-7.93-3.33,0-6.17,2.07-7.35,4.98-.34-1.99-.61-4.1-.52-6.3.87-20.09,14.67-38.32,31.96-40.95,0,0-.4,0,0,0-15.33.09-28.66,10.4-33.84,24.93.22-1.61.34-3.25.36-4.91.09-7.84-3.37-15.47-7.14-18.62-3.77-3.15-12.85-.94-12.85,6.27,0,4.38,3.55,7.93,7.93,7.93,3.33,0,6.17-2.07,7.35-4.98.34,1.99.74,4.1.52,6.3-2.12,21.27-14.31,38.11-31.36,40.29,0,0,.26-.25,0,0,15.33,0,28.06-9.74,33.25-24.27-.22,1.61-.34,3.25-.36,4.91-.09,7.84,3.37,15.47,7.14,18.62"/>
</svg>