<?xml version="1.0" encoding="UTF-8"?>
<svg id="Layer_1" data-name="Layer 1" xmlns="http://www.w3.org/2000/svg" viewBox="0 0 124.32 118.28">
  <defs>
    <style>
      .cls-1 {
        fill: #206432;
        fill-rule: evenodd;
        stroke-width: 0px;
      }
    </style>
  </defs>
  <path class="cls-1" d="m85.51,35.89c-1.71-2.81-4.55-6.92-8.51-5.32-1.71.68-2.98,2.28-4.01,3.65-1.08,1.52-2.1,2.81-2.93,4.49-2.3,4.72-5.08,12.93.1,16.88,4.35,3.35,10.12,1.67,13.64-1.83.73-.76,1.12-1.22,1.76-1.9,7.04,8.21-2.88,17.87-7.97,20.69-6.68,3.77-18.78,6.8-26.12,5.32.62-.56,1.17-1.26,1.6-2.12,1.59-3.2.93-7.18-1.47-8.88-2.41-1.7-5.65-.49-7.24,2.71-.37.74-.61,1.53-.74,2.32-.01.04-.02.09-.03.14,0,.02,0,.04-.01.06-.22.78-.3,1.6-.16,2.59-1.47-.68-3.96-3.57-4.55-5.17-3.47-8.52,3.62-19.93,4.3-22.21-1.12.68-1.71,1.22-2.98,2.05-1.27,2.13-2.64,4.94-3.42,6.62-5.38,11.71-6.41,25.56,7.58,30.58,7.48,2.59,18.58,1.75,25.91-1.37,9.34-4.03,15.99-11.28,19.26-18.63,3.99-8.98.34-23.43-4.01-30.65Z"/>
</svg>