<?xml version="1.0" encoding="UTF-8"?>
<svg id="Layer_1" data-name="Layer 1" xmlns="http://www.w3.org/2000/svg" viewBox="0 0 124.32 118.28">
  <defs>
    <style>
      .cls-1 {
        fill: #5f2d85;
        stroke-width: 0px;
      }
    </style>
  </defs>
  <path class="cls-1" d="m57.53,30.2v9.26c10.87,0,19.68,8.81,19.68,19.68s-8.81,19.68-19.68,19.68v9.26c15.98,0,28.93-12.95,28.93-28.93s-12.95-28.93-28.93-28.93Z"/>
  <path class="cls-1" d="m67.37,59.14c0-5.43-4.4-9.84-9.84-9.84v19.68c5.43,0,9.84-4.4,9.84-9.84Z"/>
  <path class="cls-1" d="m37.85,59.14c0,10.87,8.81,19.68,19.68,19.68v-9.84c-5.43,0-9.84-4.4-9.84-9.84s4.4-9.84,9.84-9.84v-9.84c-10.87,0-19.68,8.81-19.68,19.68Z"/>
</svg>