<?xml version="1.0" encoding="UTF-8"?>
<svg id="Layer_1" data-name="Layer 1" xmlns="http://www.w3.org/2000/svg" viewBox="0 0 124.32 118.28">
  <defs>
    <style>
      .cls-1 {
        fill: #f8d210;
      }

      .cls-1, .cls-2, .cls-3, .cls-4, .cls-5, .cls-6, .cls-7, .cls-8, .cls-9, .cls-10, .cls-11, .cls-12, .cls-13 {
        fill-rule: evenodd;
        stroke-width: 0px;
      }

      .cls-2 {
        fill: #1a5592;
      }

      .cls-3 {
        fill: #f58220;
      }

      .cls-4 {
        fill: #000001;
      }

      .cls-5 {
        fill: #a5ce3c;
      }

      .cls-6 {
        fill: #914a21;
      }

      .cls-7 {
        fill: #8ed8f8;
      }

      .cls-8 {
        fill: #d87ab1;
      }

      .cls-9 {
        fill: #231f20;
      }

      .cls-10 {
        fill: #5f2d85;
      }

      .cls-11 {
        fill: #ed2024;
      }

      .cls-12 {
        fill: #206432;
      }

      .cls-13 {
        fill: #ababab;
      }
    </style>
  </defs>
  <polygon class="cls-9" points="62.39 88.07 42.24 68.13 42.92 68.13 62.09 87.11 62.39 88.07"/>
  <polygon class="cls-9" points="62.29 30.2 42.24 50.26 42.92 50.26 61.99 31.17 62.29 30.2"/>
  <polygon class="cls-9" points="82.08 50.22 82.08 67.95 81.6 67.19 81.6 50.83 82.08 50.22"/>
  <polygon class="cls-12" points="72.79 50.23 62.29 30.2 82.08 50.22 72.79 50.23"/>
  <polygon class="cls-7" points="74.56 53.62 77.46 59.13 82.08 50.22 74.56 53.62"/>
  <polygon class="cls-8" points="77.46 59.13 74.61 64.63 82.08 67.95 77.46 59.13"/>
  <polygon class="cls-2" points="72.86 67.99 62.39 68.02 62.37 59.16 74.61 64.63 72.86 67.99"/>
  <polygon class="cls-6" points="72.79 50.23 74.57 53.62 62.37 59.16 62.35 50.24 72.79 50.23"/>
  <polygon class="cls-11" points="49.97 64.73 46.99 59.15 49.89 53.66 62.37 59.16 49.97 64.73"/>
  <polygon class="cls-13" points="51.69 50.25 49.89 53.66 42.24 50.26 51.69 50.25"/>
  <polygon class="cls-5" points="51.77 68.1 42.24 68.14 49.97 64.73 51.77 68.1"/>
  <polygon class="cls-4" points="46.99 59.15 42.24 68.14 42.24 50.26 46.99 59.15"/>
  <polygon class="cls-1" points="62.29 30.21 51.69 50.25 62.35 50.22 62.29 30.21"/>
  <polygon class="cls-10" points="72.86 67.99 62.39 88.07 82.08 67.95 72.86 67.99"/>
  <polygon class="cls-3" points="51.77 68.1 62.39 88.07 62.39 68.04 51.77 68.1"/>
</svg>