<?xml version="1.0" encoding="UTF-8"?>
<svg id="Layer_1" data-name="Layer 1" xmlns="http://www.w3.org/2000/svg" viewBox="0 0 124.32 118.28">
  <defs>
    <style>
      .cls-1 {
        fill: #f58220;
        stroke-width: 0px;
      }
    </style>
  </defs>
  <path class="cls-1" d="m74.22,44.4c-.42-.17-.84-.35-1.25-.53-4.57-1.99-8.98-4.88-10.48-13.67h-.67c-1.49,8.79-5.91,11.68-10.48,13.67-.42.18-.83.36-1.25.53-6.79,3.02-11.34,8.48-11.34,14.74s4.55,11.73,11.34,14.74c.42.17.83.35,1.25.53,4.57,1.99,8.98,4.88,10.48,13.67h.67c1.49-8.79,5.91-11.68,10.48-13.67.42-.18.83-.36,1.25-.53,6.79-3.02,11.34-8.48,11.34-14.74s-4.55-11.72-11.34-14.74Zm-21.63,12.86h-4.6v-4.6h4.6v4.6Z"/>
</svg>