<?xml version="1.0" encoding="UTF-8"?>
<svg id="Layer_1" data-name="Layer 1" xmlns="http://www.w3.org/2000/svg" viewBox="0 0 124.32 118.28">
  <defs>
    <style>
      .cls-1 {
        fill: #ababab;
        stroke-width: 0px;
      }
    </style>
  </defs>
  <path class="cls-1" d="m71.22,49.2c0-10.49-8.51-19-19-19s-19,8.51-19,19,8.51,19,19,19v-19h19Z"/>
  <path class="cls-1" d="m71.22,49.2h0c0,3.94-1.2,7.59-3.24,10.62-1.71,2.53-4.01,4.62-6.7,6.08-2.69,1.46-5.78,2.29-9.06,2.29h0v17c0,1.58,1.28,2.87,2.87,2.87h33.13c1.58,0,2.87-1.28,2.87-2.87v-33.13c0-1.58-1.28-2.87-2.87-2.87h-17Z"/>
</svg>