<?xml version="1.0" encoding="UTF-8"?>
<svg id="Layer_1" data-name="Layer 1" xmlns="http://www.w3.org/2000/svg" viewBox="0 0 124.32 118.28">
  <defs>
    <style>
      .cls-1 {
        fill: #1a5592;
        fill-rule: evenodd;
        stroke-width: 0px;
      }
    </style>
  </defs>
  <path class="cls-1" d="m64.78,32.23c-1.58-1.3-2.62-2.03-2.62-2.03,0,0-2.25,1.56-5.18,4.27-.74.68-1.52,1.44-2.32,2.26-5.18,5.31-11.14,13.37-11.14,22.41,0,12.82,11.99,23.68,16.74,27.48.78-.75,1.58-1.57,2.38-2.44,4.71-5.12,9.46-12.23,9.46-20.1,0-10.79-8.93-20.17-14.43-24.92.74-.86,1.49-1.67,2.23-2.42,5.26,4.41,15.7,14.67,15.7,26.63,0,9.03-5.95,17.09-11.13,22.39-.81.83-1.59,1.58-2.33,2.27.03.02.05.04.05.04,0,0,1.04-.72,2.62-2.03,5.13-4.24,16.03-14.68,16.03-26.91s-10.9-22.67-16.03-26.91Zm-1.35,22.69v-1.64c11.34,10.98,0,21.07,0,21.07,9.3-11.1,0-19.42,0-19.42Z"/>
</svg>