<?xml version="1.0" encoding="UTF-8"?>
<svg id="Layer_1" data-name="Layer 1" xmlns="http://www.w3.org/2000/svg" viewBox="0 0 124.32 118.28">
  <defs>
    <style>
      .cls-1 {
        fill: #983420;
      }

      .cls-1, .cls-2, .cls-3, .cls-4 {
        stroke-width: 0px;
      }

      .cls-2 {
        fill: none;
      }

      .cls-3 {
        fill: #4b3828;
      }

      .cls-4 {
        fill: #e0c190;
      }
    </style>
  </defs>
  <path class="cls-3" d="m92.66,49.5c-.09-1.65-.23-3.3-.48-4.93-.32-2.08-.79-4.14-1.19-6.21-.45-2.29-.9-4.58-1.08-6.91-.07-.87-.79-1.39-1.63-1.19-.29.07-.59.19-.83.36-1.52,1.1-3.07,2.16-4.53,3.33-3.03,2.44-5.66,5.28-7.79,8.55-.58.89-1.09,1.82-1.64,2.74-.02,0-.05-.01-.08-.03-2.42-1.65-5.09-2.63-7.98-3-2.51-.32-5.01-.29-7.5.17-2.07.38-4.03,1.06-5.85,2.11-.42.24-.84.5-1.27.77-.06-.1-.11-.18-.15-.26-1.36-2.73-3.18-5.14-5.25-7.36-1.92-2.06-4.01-3.92-6.32-5.53-.89-.62-1.79-1.25-2.75-1.76-.87-.47-1.7.02-1.87,1-.08.47-.08.96-.15,1.43-.19,1.27-.37,2.55-.61,3.82-.33,1.74-.72,3.46-1.05,5.2-.26,1.36-.51,2.72-.69,4.09-.15,1.17-.2,2.36-.28,3.54-.17,2.55-.09,5.1.41,7.61.57,2.87,1.92,5.35,4.07,7.35,1.87,1.74,4.01,2.99,6.61,3.33.11.01.25.16.29.27.15.35.24.73.4,1.09,1.38,3.09,3.75,5.18,6.73,6.66.13.06.26.11.44.19-.1.08-.14.12-.18.16-.37.3-.6.65-.66,1.06l2.14,1.36,12.99,1.45,5.44-1.25,2.31-1.53,1.21-.78c-.11-.1-.23-.2-.38-.29.58-.32,1.11-.59,1.62-.89,2.89-1.71,5.1-3.99,6.07-7.31.03-.09.16-.19.26-.21.74-.19,1.5-.28,2.21-.54,2.81-1.05,4.98-2.91,6.6-5.42,1.58-2.45,2.23-5.19,2.38-8.06.07-1.39.09-2.79.01-4.19Zm-15.74-8.64c2.84-3.69,6.27-6.74,10.1-9.35.37-.25.76-.47,1.15-.68.15-.08.34-.13.5-.11.14.01.32.09.41.2.04.05-.06.27-.15.37-1.39,1.56-2.78,3.11-3.95,4.85-1.77,2.63-3.14,5.45-4.05,8.5-.81,2.71-1.26,5.48-1.4,8.3,0,.03-.02.06-.05.13-1.25-2.96-2.92-5.56-5.54-7.48.85-1.67,1.84-3.24,2.97-4.72Zm-25.95,4.97c1.99-1.42,4.2-2.35,6.59-2.84,2.68-.56,5.38-.6,8.08-.21,2.8.4,5.37,1.37,7.69,3.01.23.17.42.4.53.66.64,1.55,1.13,3.15,1.36,4.82.05.35.14.69.21,1.03.05.23-.02.38-.25.51-2.46,1.28-4.44,3.16-6.28,5.19-1.46,1.62-2.75,3.36-3.72,5.31-.5,1-.88,2.06-1.33,3.12-.54-.09-1.14-.27-1.74-.27-.6,0-1.19.17-1.78.26-.23-.64-.43-1.32-.71-1.97-1.03-2.38-2.5-4.47-4.22-6.4-1.67-1.87-3.53-3.53-5.66-4.86-.17-.11-.34-.23-.52-.29-.36-.11-.42-.34-.37-.67.33-2,.65-4,1.62-5.82.12-.23.3-.42.5-.57Zm24.71,7.26c1.8,1.67,3.15,3.66,4.03,5.94.68,1.77.92,3.64.57,5.53-.48,2.58-1.9,4.47-4.32,5.56-1.4.63-2.86.74-4.37.5-2.11-.35-3.88-1.4-5.53-2.69-.63-.49-1.27-.95-1.95-1.47.84-2.66,2.22-5.07,4.02-7.25,1.69-2.05,3.55-3.94,5.79-5.41.43-.28.89-.52,1.33-.79.17-.1.29-.06.43.07Zm-15.73,13.5c-1.15.84-2.3,1.7-3.49,2.49-1.48.97-3.12,1.57-4.9,1.65-2.31.1-4.27-.67-5.83-2.4-1.37-1.53-1.74-3.4-1.83-5.3.03-1.83.42-3.5,1.17-5.09.85-1.81,1.99-3.38,3.38-4.8.27-.27.47-.24.72-.06,1.17.86,2.39,1.66,3.5,2.59,1.96,1.66,3.65,3.58,5.05,5.73.98,1.51,1.81,3.09,2.3,4.83.03.11,0,.3-.07.35Zm-24.42-35.86c.26,0,.56.04.77.17.86.53,1.71,1.08,2.53,1.66,2.38,1.69,4.55,3.63,6.52,5.78,1.91,2.09,3.56,4.35,4.85,6.88.05.1.12.2.21.34-1.18.96-2.31,2-3.23,3.23-.92,1.23-1.63,2.57-2.28,3.98-.02-.36-.04-.72-.07-1.07-.35-4.07-1.35-7.96-3.15-11.63-1.52-3.09-3.49-5.85-5.88-8.33-.15-.15-.29-.3-.43-.46-.07-.08-.18-.23-.15-.27.08-.11.22-.27.33-.26Zm7.32,36.52c-.56-.13-1.09-.2-1.59-.37-2.68-.91-4.83-2.54-6.47-4.85-1.37-1.93-2.11-4.08-2.41-6.41-.3-2.36-.33-4.73-.12-7.1.13-1.47.26-2.95.49-4.4.23-1.49.62-2.96.89-4.45.44-2.43.85-4.87,1.27-7.3.04-.24.03-.48.05-.8,4.29,4.45,7.31,9.52,8.61,15.63-2.49-2.7-5.42-4.41-9.03-4.81-.01.07,0,.04-.02.11.44.12.88.24,1.31.37,3.08.88,5.64,2.54,7.7,4.99.23.28.35.59.41.95.25,1.8.51,3.6.39,5.43,0,.04-.01.09-.02.15-3.15-3.05-6.83-4.39-11.16-3.72,0,.1,0,.06.01.15.11,0,.21,0,.32,0,1.05.04,2.12,0,3.16.13,1.49.18,2.91.65,4.22,1.38.9.51,1.75,1.12,2.61,1.71.23.16.4.39.58.61.06.08.09.24.06.34-.25.91-.53,1.82-.78,2.73-.07.24-.2.24-.39.23-1.58-.08-3.14.01-4.69.35-1.16.25-2.23.7-3.26,1.29-.1.06-.18.13-.26.24,2.65-1.3,5.46-1.53,8.38-1.38-.5,2.89-.88,5.78-.25,8.79Zm34.23,5.97c-2.03,1.71-4.34,2.83-6.89,3.52-1.74.47-3.5.76-5.29.88-1.34.09-2.7.16-4.04.1-1.41-.07-2.83-.25-4.22-.51-1.35-.25-2.7-.6-4.01-1.02-2.52-.8-4.74-2.13-6.56-4.07-1.56-1.66-2.51-3.63-2.86-5.88-.28-1.83-.15-3.65.07-5.47.4-3.22,1.39-6.26,2.8-9.17.79-1.63,1.84-3.07,3.15-4.32.26-.25.52-.49.83-.78-.26.82-.53,1.54-.71,2.28-.3,1.27-.55,2.56-.82,3.85-.03.13-.09.27-.18.35-1.95,1.85-3.31,4.07-4.1,6.62-.68,2.16-.75,4.37-.02,6.54.76,2.23,2.34,3.69,4.56,4.45,2.26.77,4.42.35,6.52-.59,1.25-.56,2.33-1.39,3.41-2.22.33-.25.65-.5.99-.74.66-.45,1.43-.63,2.2-.6.73.03,1.48.11,2.18.33.46.14.82.56,1.23.85,1.01.71,1.99,1.5,3.06,2.12,1.75,1.01,3.68,1.46,5.69,1.16,2.89-.43,4.9-2.08,5.99-4.78.65-1.61.7-3.28.38-4.98-.58-3.15-2.14-5.77-4.4-7.99-.22-.22-.28-.42-.34-.71-.42-1.99-.77-4-1.56-5.9,0-.02,0-.04.03-.12.33.3.65.57.94.86,1.88,1.86,3.15,4.09,4.07,6.55.82,2.19,1.41,4.45,1.67,6.78.14,1.25.27,2.5.29,3.75.05,3.59-1.3,6.57-4.06,8.9Zm15.01-18.76c-.27,2.59-.92,5.06-2.42,7.26-1.52,2.22-3.45,3.92-5.97,4.9-.66.26-1.37.37-2.06.55-.06.02-.13,0-.25,0,.34-1.45.31-2.91.22-4.35-.1-1.45-.3-2.89-.45-4.35,2.85-.19,5.69.06,8.36,1.37.01-.03.03-.06.04-.09-.11-.08-.22-.17-.34-.24-2.22-1.21-4.62-1.64-7.13-1.57-.29,0-.59.03-.88.01-.1,0-.25-.12-.28-.21-.26-.89-.5-1.78-.73-2.68-.02-.09.04-.24.11-.32,1.12-1.32,2.58-2.15,4.13-2.85,1.87-.85,3.85-1.16,5.89-1.16.16,0,.33.03.49.05.16.02.31.03.52.05-.4-.38-2.33-.49-4.07-.23-1.38.2-2.67.69-3.91,1.34-1.22.64-2.33,1.43-3.28,2.6-.05-.23-.1-.36-.09-.48.15-1.65.33-3.29.46-4.94.08-1.02.79-1.62,1.43-2.25,1.87-1.86,4.06-3.2,6.61-3.94.54-.16,1.1-.28,1.63-.47-1.82.07-3.52.61-5.11,1.49-1.58.87-2.99,1.96-4.17,3.33,1.23-6.12,4.23-11.26,8.54-15.7.01.04.05.11.05.18.13,2.34.67,4.61,1.09,6.91.45,2.38.97,4.76,1.31,7.15.42,2.86.55,5.75.25,8.63Z"/>
  <path class="cls-4" d="m81.14,64.32c-.02-1.25-.15-2.51-.29-3.75-.26-2.33-.85-4.58-1.67-6.78-.92-2.46-2.19-4.69-4.07-6.55-.3-.29-.61-.56-.94-.86-.02.08-.03.11-.03.12.79,1.89,1.14,3.91,1.56,5.9.06.29.11.49.34.71,2.26,2.23,3.81,4.84,4.4,7.99.31,1.7.27,3.37-.38,4.98-1.09,2.7-3.1,4.35-5.99,4.78-2.01.3-3.94-.15-5.69-1.16-1.07-.62-2.04-1.4-3.06-2.12-.41-.29-.78-.71-1.23-.85-.7-.22-1.45-.3-2.18-.33-.78-.03-1.54.14-2.2.6-.34.23-.66.49-.99.74-1.08.83-2.16,1.66-3.41,2.22-2.1.94-4.26,1.36-6.52.59-2.22-.76-3.81-2.22-4.56-4.45-.73-2.16-.66-4.37.02-6.54.8-2.55,2.15-4.77,4.1-6.62.09-.09.16-.23.18-.35.28-1.28.52-2.57.82-3.85.18-.74.45-1.46.71-2.28-.31.3-.57.54-.83.78-1.31,1.25-2.36,2.69-3.15,4.32-1.41,2.91-2.4,5.95-2.8,9.17-.23,1.82-.35,3.65-.07,5.47.34,2.25,1.3,4.22,2.86,5.88,1.82,1.95,4.04,3.27,6.57,4.07,1.31.42,2.66.77,4.01,1.02,1.39.26,2.81.44,4.22.51,1.34.07,2.7,0,4.04-.1,1.79-.12,3.56-.41,5.29-.88,2.55-.69,4.87-1.82,6.89-3.52,2.76-2.33,4.11-5.31,4.06-8.9Zm-12.27,8.67s-.01,0-.02,0c-.06.03-.14,0-.17,0-.52-.05-.91.16-1.25.46-.22.19-.43.4-.64.6-.41.4-.86.48-1.38.21-.24-.12-.49-.21-.75-.28-.43-.12-.83-.03-1.22.18-.35.19-.71.36-1.08.49-.42.15-.83.03-1.22-.17-.06-.03-.13-.06-.19-.1-.7-.5-1.42-.54-2.18-.14-.38.2-.76.12-1.1-.11-.22-.15-.44-.32-.64-.5-.46-.41-.99-.61-1.6-.63-.19,0-.4-.02-.36-.26.02-.1.23-.22.35-.22.8-.04,1.49.25,2.07.81.42.4.83.54,1.39.24.62-.33,1.27-.28,1.88.07.24.14.49.27.75.39.38.18.74.15,1.11-.05.37-.2.75-.4,1.14-.53.61-.2,1.2-.06,1.77.22.56.27.66.26,1.09-.21.55-.6,1.18-1.03,2.04-1.01.08,0,.18-.03.24.01,0,0,0,0,0,0,.19.13.16.42-.05.52Z"/>
  <path class="cls-4" d="m80.84,47.29c1.23-6.12,4.23-11.26,8.54-15.7.01.04.05.11.05.18.13,2.34.67,4.61,1.09,6.91.45,2.38.97,4.76,1.31,7.15.42,2.86.55,5.75.25,8.63-.27,2.59-.92,5.06-2.42,7.26-1.52,2.22-3.45,3.92-5.97,4.9-.66.26-1.37.37-2.06.55-.06.02-.13,0-.25,0,.34-1.45.31-2.91.22-4.35-.1-1.45-.3-2.89-.45-4.35,2.85-.19,5.69.06,8.36,1.37.01-.03.03-.06.04-.09-.11-.08-.22-.17-.34-.24-2.22-1.21-4.62-1.64-7.13-1.57-.29,0-.59.03-.88.01-.1,0-.25-.12-.28-.21-.26-.89-.5-1.78-.73-2.68-.02-.09.04-.24.11-.32,1.12-1.32,2.58-2.15,4.13-2.85,1.87-.85,3.85-1.16,5.89-1.16.16,0,.33.03.49.05.16.02.31.03.52.05-.4-.38-2.33-.49-4.07-.23-1.38.2-2.67.69-3.91,1.34-1.22.64-2.33,1.43-3.28,2.6-.05-.23-.1-.36-.09-.48.15-1.65.33-3.29.46-4.94.08-1.02.79-1.62,1.43-2.25,1.87-1.86,4.06-3.2,6.61-3.94.54-.16,1.1-.28,1.63-.47-1.82.07-3.52.61-5.11,1.49-1.58.87-2.99,1.96-4.17,3.33Z"/>
  <path class="cls-4" d="m43.57,47.19c-2.49-2.69-5.41-4.4-9.01-4.8-.02.04-.03.07-.05.11.44.12.88.24,1.31.37,3.08.88,5.64,2.54,7.7,4.99.23.28.35.59.41.95.25,1.8.51,3.6.39,5.43,0,.04-.01.09-.02.15-3.14-3.04-6.81-4.39-11.13-3.72-.01.05-.02.11-.03.16.11,0,.22,0,.33,0,1.05.04,2.12,0,3.16.13,1.49.18,2.91.65,4.22,1.38.9.51,1.75,1.12,2.61,1.71.23.16.41.39.58.61.06.08.09.24.06.34-.25.91-.53,1.82-.78,2.73-.07.24-.2.24-.39.23-1.58-.08-3.14.01-4.69.35-1.16.25-2.23.7-3.26,1.29-.1.06-.18.13-.26.24,2.65-1.3,5.46-1.53,8.38-1.38-.5,2.89-.88,5.78-.25,8.79-.56-.13-1.09-.2-1.59-.37-2.68-.91-4.83-2.54-6.47-4.85-1.37-1.93-2.11-4.08-2.41-6.41-.3-2.36-.33-4.73-.12-7.1.13-1.47.26-2.95.49-4.4.23-1.49.62-2.96.89-4.45.44-2.43.85-4.87,1.27-7.3.04-.24.03-.48.05-.8,4.29,4.45,7.31,9.52,8.61,15.63Z"/>
  <path class="cls-4" d="m43.9,63.02c.03-1.83.42-3.5,1.17-5.09.85-1.81,1.99-3.38,3.38-4.8.27-.27.47-.24.72-.06,1.17.86,2.39,1.66,3.5,2.59,1.96,1.66,3.65,3.58,5.05,5.73.98,1.51,1.81,3.09,2.3,4.83.03.11,0,.3-.07.35-1.15.84-2.3,1.7-3.49,2.49-1.48.97-3.12,1.57-4.9,1.65-2.31.1-4.27-.67-5.83-2.4-1.37-1.53-1.74-3.4-1.83-5.3Zm1.63-1.09c0,1.91.61,3.72,1.9,5.08,1.68,1.77,3.76,2.46,6.17,1.93,1.45-.32,2.73-1.03,3.98-1.81.72-.45.82-.81.49-1.59-.92-2.15-2.3-3.96-4.05-5.5-1.41-1.24-2.99-2.14-4.86-2.45-1.03-.17-1.94.12-2.59.97-.76.99-1.03,2.14-1.03,3.36Z"/>
  <path class="cls-4" d="m64.11,66.46c.84-2.66,2.22-5.07,4.02-7.25,1.69-2.05,3.55-3.94,5.79-5.41.43-.28.89-.52,1.33-.79.17-.1.29-.06.43.07,1.8,1.67,3.15,3.66,4.03,5.94.68,1.77.92,3.64.57,5.53-.48,2.58-1.9,4.47-4.32,5.56-1.4.63-2.86.74-4.37.5-2.11-.35-3.88-1.4-5.53-2.69-.63-.49-1.27-.95-1.95-1.47Zm14.56-4.47c.05-1.11-.26-2.21-.89-3.23-.6-.97-1.47-1.37-2.59-1.26-1.24.13-2.34.66-3.38,1.3-1.82,1.12-3.28,2.61-4.44,4.39-.54.83-1.07,1.66-1.35,2.61-.16.56-.03.91.46,1.23.27.17.54.33.81.49,1.23.75,2.53,1.34,3.98,1.51,2.43.29,4.41-.57,5.92-2.45,1.04-1.3,1.5-2.85,1.48-4.61Z"/>
  <path class="cls-4" d="m79.48,53.07c-1.25-2.96-2.92-5.56-5.54-7.48.85-1.67,1.84-3.24,2.97-4.72,2.84-3.69,6.27-6.74,10.1-9.35.37-.25.76-.47,1.15-.68.15-.08.34-.13.5-.11.14.01.32.09.41.2.04.06-.06.27-.15.37-1.39,1.56-2.78,3.11-3.95,4.85-1.77,2.63-3.14,5.45-4.05,8.5-.81,2.71-1.26,5.48-1.4,8.3,0,.03-.02.06-.05.13Z"/>
  <path class="cls-4" d="m44.89,52.76c-.02-.36-.04-.72-.07-1.07-.35-4.07-1.35-7.96-3.15-11.63-1.52-3.09-3.49-5.85-5.88-8.33-.15-.15-.29-.3-.43-.46-.07-.08-.18-.23-.15-.27.08-.11.22-.27.33-.26.26,0,.56.04.77.17.86.53,1.71,1.08,2.53,1.66,2.38,1.69,4.55,3.63,6.52,5.78,1.91,2.09,3.56,4.35,4.85,6.88.05.1.12.2.21.34-1.18.96-2.31,2-3.23,3.23-.92,1.23-1.63,2.57-2.28,3.98Z"/>
  <path class="cls-4" d="m75.43,52.3c-.07-.34-.16-.69-.21-1.03-.23-1.67-.71-3.27-1.36-4.82-.11-.25-.31-.51-.53-.66-2.31-1.63-4.89-2.61-7.68-3.01-2.7-.38-5.4-.34-8.08.21-2.4.5-4.61,1.42-6.6,2.85-.2.14-.38.35-.5.57-.97,1.82-1.29,3.82-1.62,5.82-.05.33,0,.56.37.67.19.06.35.18.52.29,2.13,1.34,3.99,2.99,5.66,4.86,1.72,1.93,3.19,4.02,4.22,6.4.28.65.48,1.33.71,1.97.59-.09,1.19-.27,1.78-.26.6,0,1.19.18,1.74.27.45-1.06.84-2.11,1.33-3.12.97-1.96,2.26-3.7,3.72-5.31,1.84-2.04,3.82-3.91,6.28-5.19.23-.12.3-.28.25-.51Z"/>
  <path class="cls-3" d="m68.69,73c-.52-.05-.91.16-1.25.46-.22.19-.43.4-.64.6-.41.4-.86.48-1.38.21-.24-.12-.49-.21-.75-.28-.43-.12-.83-.03-1.22.18-.35.19-.71.36-1.08.49-.42.15-.83.03-1.22-.17-.06-.03-.13-.06-.19-.1-.7-.5-1.42-.54-2.18-.14-.38.2-.76.12-1.1-.11-.22-.15-.44-.32-.64-.5-.46-.41-.99-.61-1.6-.63-.19,0-.4-.02-.36-.26.02-.1.23-.22.35-.22.8-.04,1.49.25,2.07.81.42.4.83.54,1.39.24.62-.33,1.27-.28,1.88.07.24.14.49.27.75.39.38.18.74.15,1.11-.05.37-.2.75-.4,1.14-.53.61-.2,1.2-.06,1.77.22.56.27.66.26,1.09-.21.55-.6,1.18-1.03,2.04-1.01.08,0,.18-.03.24.01,0,0,0,0,0,0,.19.13.16.42-.05.52,0,0-.01,0-.02,0-.06.03-.14,0-.17,0Z"/>
  <g>
    <path class="cls-1" d="m45.52,61.93c0-1.23.27-2.38,1.03-3.36.66-.85,1.56-1.14,2.59-.97,1.87.31,3.45,1.21,4.86,2.45,1.75,1.54,3.13,3.35,4.05,5.5.34.78.24,1.14-.49,1.59-1.25.77-2.53,1.49-3.98,1.81-2.42.53-4.49-.17-6.17-1.93-1.29-1.36-1.9-3.17-1.9-5.08Z"/>
    <path class="cls-3" d="m48.61,58.11h0c.14,0,.3.01.45.04,1.62.27,3.12,1.02,4.58,2.31,1.77,1.56,3.05,3.3,3.91,5.3.14.33.15.48.13.54-.01.05-.09.16-.4.35-1.09.68-2.37,1.43-3.8,1.74-.48.11-.96.16-1.42.16-1.59,0-3.01-.65-4.23-1.93-1.14-1.2-1.75-2.83-1.74-4.69,0-1.23.3-2.22.91-3.02.42-.54.94-.8,1.6-.8m0-.56c-.8,0-1.51.32-2.05,1.02-.76.99-1.03,2.14-1.03,3.36,0,1.91.61,3.72,1.9,5.08,1.31,1.38,2.87,2.11,4.64,2.11.5,0,1.01-.06,1.54-.17,1.45-.32,2.73-1.03,3.98-1.81.72-.45.82-.81.49-1.59-.92-2.15-2.3-3.96-4.05-5.5-1.41-1.24-2.99-2.14-4.86-2.45-.19-.03-.37-.05-.54-.05h0Z"/>
  </g>
  <g>
    <path class="cls-1" d="m78.67,62c.02,1.76-.43,3.31-1.48,4.61-1.51,1.88-3.49,2.74-5.92,2.45-1.45-.17-2.75-.76-3.98-1.51-.27-.17-.55-.32-.81-.49-.49-.32-.63-.67-.46-1.23.28-.96.81-1.79,1.35-2.61,1.16-1.79,2.62-3.28,4.44-4.39,1.04-.64,2.14-1.17,3.38-1.3,1.12-.12,1.99.29,2.59,1.26.63,1.02.93,2.12.89,3.23Z"/>
    <path class="cls-3" d="m75.56,57.49v.56s0,0,0,0c.77,0,1.32.32,1.75,1.01.57.92.85,1.9.8,2.91h0s0,.03,0,.03c.02,1.7-.42,3.09-1.36,4.25-1.22,1.52-2.76,2.29-4.58,2.29-.27,0-.55-.02-.83-.05-1.19-.14-2.38-.6-3.75-1.44-.11-.07-.22-.13-.32-.19-.17-.1-.32-.19-.48-.29-.29-.19-.32-.28-.23-.6.26-.9.8-1.73,1.28-2.46,1.15-1.77,2.59-3.2,4.26-4.22.82-.5,1.91-1.09,3.15-1.22.1-.01.21-.02.31-.02v-.56m0,0c-.12,0-.24,0-.36.02-1.24.13-2.34.66-3.38,1.3-1.82,1.12-3.28,2.61-4.44,4.39-.54.83-1.07,1.66-1.35,2.61-.16.56-.03.91.46,1.23.27.17.54.33.81.49,1.23.75,2.53,1.34,3.98,1.51.31.04.61.05.9.05,2.02,0,3.71-.86,5.02-2.5,1.04-1.3,1.5-2.85,1.48-4.61.05-1.11-.26-2.21-.89-3.23-.53-.86-1.28-1.28-2.23-1.28h0Z"/>
  </g>
  <rect class="cls-3" x="62.09" y="43.3" width=".14" height="22.68"/>
  <path class="cls-3" d="m64.4,68.75c-2.69-.81-4.49,0-4.49,0-.25,0-.37.31-.18.48l2.24,2.01c.1.09.26.09.37,0l2.24-2.01c.19-.17.07-.48-.18-.48Z"/>
  <path class="cls-2" d="m73.92,53.8c-2.24,1.47-4.09,3.35-5.79,5.41-1.8,2.18-3.18,4.59-4.02,7.25.68.51,1.32.98,1.95,1.47,1.66,1.29,3.42,2.34,5.53,2.69,1.51.25,2.97.14,4.37-.5,2.42-1.09,3.83-2.99,4.32-5.56.36-1.89.12-3.76-.57-5.53-.88-2.28-2.23-4.27-4.03-5.94-.14-.13-.26-.17-.43-.07-.44.27-.9.5-1.33.79Z"/>
  <path class="cls-2" d="m52.67,55.66c-1.11-.94-2.33-1.74-3.5-2.59-.25-.18-.45-.21-.72.06-1.4,1.42-2.54,2.99-3.38,4.8-.75,1.6-1.14,3.26-1.17,5.09.09,1.89.45,3.77,1.83,5.3,1.56,1.73,3.53,2.51,5.83,2.4,1.78-.08,3.42-.68,4.9-1.65,1.19-.78,2.34-1.65,3.49-2.49.07-.05.1-.25.07-.35-.5-1.74-1.32-3.32-2.3-4.83-1.4-2.16-3.09-4.08-5.05-5.73Z"/>
  <path class="cls-2" d="m35.79,31.72c2.39,2.47,4.36,5.24,5.88,8.33,1.8,3.67,2.8,7.57,3.15,11.63.03.36.05.72.07,1.07.65-1.41,1.36-2.75,2.28-3.98.92-1.24,2.05-2.27,3.23-3.23-.09-.14-.15-.24-.21-.34-1.29-2.52-2.94-4.79-4.85-6.88-1.97-2.16-4.14-4.09-6.52-5.78-.82-.58-1.67-1.13-2.53-1.66-.21-.13-.51-.16-.77-.17-.11,0-.25.15-.33.26-.03.04.09.19.15.27.14.16.28.31.43.46Z"/>
  <path class="cls-2" d="m34.72,59.84c.07-.11.16-.19.26-.24,1.02-.59,2.1-1.04,3.26-1.29,1.55-.34,3.11-.43,4.69-.35.19,0,.32,0,.39-.23.25-.91.53-1.82.78-2.73.03-.1,0-.26-.06-.34-.17-.22-.35-.45-.58-.61-.86-.59-1.71-1.2-2.61-1.71-1.31-.74-2.73-1.2-4.22-1.38-1.04-.13-2.1-.09-3.16-.13-.11,0-.21,0-.32,0,0-.1,0-.06-.01-.15,4.34-.68,8.02.67,11.16,3.72,0-.06.02-.11.02-.15.12-1.83-.13-3.63-.39-5.43-.05-.36-.17-.67-.41-.95-2.06-2.45-4.63-4.11-7.7-4.99-.44-.12-.87-.24-1.31-.37.01-.07,0-.04.02-.11,3.61.4,6.54,2.11,9.03,4.81-1.3-6.1-4.32-11.17-8.61-15.63-.02.31,0,.56-.05.8-.42,2.44-.82,4.87-1.27,7.3-.27,1.49-.65,2.95-.89,4.45-.23,1.46-.36,2.93-.49,4.4-.21,2.37-.18,4.73.12,7.1.29,2.33,1.04,4.48,2.41,6.41,1.64,2.32,3.79,3.94,6.47,4.85.5.17,1.03.24,1.59.37-.63-3.01-.25-5.9.25-8.79-2.92-.15-5.73.08-8.38,1.38Z"/>
  <path class="cls-2" d="m49.21,52.9c.19.06.35.18.52.29,2.13,1.34,3.99,2.99,5.66,4.86,1.72,1.93,3.19,4.02,4.22,6.4.28.65.48,1.33.71,1.97.59-.09,1.19-.27,1.78-.26.6,0,1.19.18,1.74.27.45-1.06.84-2.11,1.33-3.12.97-1.96,2.26-3.7,3.72-5.31,1.84-2.04,3.82-3.91,6.28-5.19.23-.12.3-.28.25-.51-.07-.34-.16-.69-.21-1.03-.23-1.67-.71-3.27-1.36-4.82-.11-.27-.29-.5-.53-.66-2.31-1.64-4.89-2.61-7.69-3.01-2.7-.38-5.4-.34-8.08.21-2.4.5-4.6,1.42-6.59,2.84-.21.15-.38.34-.51.57-.97,1.82-1.29,3.82-1.62,5.82-.05.33,0,.56.37.67Z"/>
  <path class="cls-2" d="m79.48,53.07c.03-.07.05-.1.05-.13.14-2.82.59-5.59,1.4-8.3.91-3.05,2.28-5.87,4.05-8.5,1.17-1.74,2.56-3.29,3.95-4.85.09-.1.19-.31.15-.37-.09-.11-.26-.19-.41-.2-.17-.01-.36.03-.5.11-.39.21-.78.43-1.15.68-3.84,2.61-7.27,5.66-10.1,9.35-1.14,1.48-2.13,3.05-2.97,4.72,2.62,1.92,4.29,4.52,5.54,7.48Z"/>
  <path class="cls-2" d="m85.01,43.95c1.59-.87,3.28-1.41,5.11-1.49-.53.19-1.09.31-1.63.47-2.54.74-4.73,2.08-6.61,3.94-.64.63-1.34,1.24-1.43,2.25-.13,1.65-.31,3.29-.46,4.94-.01.12.04.25.09.48.94-1.18,2.06-1.96,3.28-2.6,1.23-.65,2.53-1.14,3.91-1.34,1.75-.25,3.67-.14,4.07.23-.21-.02-.37-.04-.52-.05-.16-.02-.33-.05-.49-.05-2.04,0-4.02.31-5.89,1.16-1.55.7-3.01,1.53-4.13,2.85-.07.08-.14.23-.11.32.23.9.47,1.79.73,2.68.03.09.18.2.28.21.29.02.59,0,.88-.01,2.51-.08,4.9.36,7.13,1.57.12.07.23.16.34.24-.01.03-.03.06-.04.09-2.67-1.31-5.5-1.56-8.36-1.37.16,1.47.36,2.9.45,4.35.1,1.45.12,2.9-.22,4.35.12,0,.19.01.25,0,.69-.18,1.41-.29,2.06-.55,2.51-.98,4.45-2.68,5.97-4.9,1.5-2.19,2.15-4.66,2.42-7.26.3-2.89.16-5.77-.25-8.63-.35-2.4-.87-4.77-1.31-7.15-.43-2.29-.96-4.57-1.09-6.91,0-.07-.04-.14-.05-.18-4.31,4.44-7.31,9.58-8.54,15.7,1.18-1.37,2.59-2.47,4.17-3.33Z"/>
  <path class="cls-2" d="m56.64,77.21c1.39.26,2.81.44,4.22.51,1.34.07,2.7,0,4.04-.1,1.79-.12,3.56-.41,5.29-.88,2.55-.69,4.87-1.82,6.89-3.52,2.76-2.33,4.11-5.31,4.06-8.9-.02-1.25-.15-2.51-.29-3.75-.26-2.33-.85-4.58-1.67-6.78-.92-2.46-2.19-4.69-4.07-6.55-.3-.29-.61-.56-.94-.86-.02.08-.03.11-.03.12.79,1.89,1.14,3.91,1.56,5.9.06.29.11.49.34.71,2.26,2.23,3.81,4.84,4.4,7.99.31,1.7.27,3.37-.38,4.98-1.09,2.7-3.1,4.35-5.99,4.78-2.01.3-3.94-.15-5.69-1.16-1.07-.62-2.04-1.4-3.06-2.12-.41-.29-.78-.71-1.23-.85-.7-.22-1.45-.3-2.18-.33-.78-.03-1.54.14-2.2.6-.34.23-.66.49-.99.74-1.08.83-2.16,1.66-3.41,2.22-2.1.94-4.26,1.36-6.52.59-2.22-.76-3.81-2.22-4.56-4.45-.73-2.16-.66-4.37.02-6.54.8-2.55,2.15-4.77,4.1-6.62.09-.09.16-.23.18-.35.28-1.28.52-2.57.82-3.85.18-.74.45-1.46.71-2.28-.31.3-.57.54-.83.78-1.31,1.25-2.36,2.69-3.15,4.32-1.41,2.91-2.4,5.95-2.8,9.17-.23,1.82-.35,3.65-.07,5.47.34,2.25,1.3,4.22,2.86,5.88,1.82,1.95,4.04,3.27,6.57,4.07,1.31.42,2.66.77,4.01,1.02Z"/>
  <g>
    <path class="cls-1" d="m76.88,62.55c.01,1.2-.3,2.26-1.01,3.15-1.03,1.29-2.39,1.87-4.05,1.68-.99-.12-1.88-.52-2.72-1.04-.18-.11-.37-.22-.56-.34-.34-.22-.43-.46-.32-.84.19-.65.55-1.22.92-1.79.79-1.22,1.79-2.24,3.04-3.01.71-.44,1.46-.8,2.31-.89.77-.08,1.36.2,1.77.86.43.69.64,1.45.61,2.21Z"/>
    <path class="cls-3" d="m74.74,59.47v.35c.53,0,.93.23,1.23.71.4.64.58,1.31.55,2.01h0s0,.02,0,.02c.01,1.17-.29,2.13-.93,2.93-.84,1.05-1.9,1.58-3.16,1.58-.19,0-.38-.01-.57-.03-.82-.1-1.64-.41-2.58-.99-.07-.04-.15-.09-.22-.13-.11-.07-.22-.13-.33-.2-.21-.14-.24-.21-.17-.45.18-.62.55-1.19.88-1.69.79-1.22,1.78-2.19,2.92-2.9.56-.34,1.31-.75,2.17-.84.07,0,.14-.01.21-.01v-.35m0,0c-.08,0-.16,0-.25.01-.85.09-1.6.45-2.31.89-1.24.76-2.24,1.78-3.04,3.01-.37.56-.73,1.13-.92,1.79-.11.39-.02.62.32.84.18.12.37.22.56.34.84.52,1.73.92,2.72,1.04.21.02.41.04.61.04,1.38,0,2.53-.59,3.44-1.71.71-.89,1.03-1.95,1.01-3.15.03-.76-.18-1.51-.61-2.21-.37-.59-.88-.87-1.52-.87h0Z"/>
  </g>
  <g>
    <path class="cls-1" d="m47.33,62.55c-.01,1.2.3,2.26,1.01,3.15,1.03,1.29,2.39,1.87,4.05,1.68.99-.12,1.88-.52,2.72-1.04.18-.11.37-.22.56-.34.34-.22.43-.46.32-.84-.19-.65-.55-1.22-.92-1.79-.79-1.22-1.79-2.24-3.04-3.01-.71-.44-1.46-.8-2.31-.89-.77-.08-1.36.2-1.77.86-.43.69-.64,1.45-.61,2.21Z"/>
    <path class="cls-3" d="m49.46,59.82c.07,0,.14,0,.21.01.85.09,1.61.49,2.17.84,1.15.7,2.13,1.68,2.92,2.9.33.5.7,1.07.88,1.69.07.23.04.31-.17.45-.1.07-.21.13-.33.2-.07.04-.15.09-.22.13-.94.58-1.76.89-2.58.99-.19.02-.39.03-.57.03-1.26,0-2.32-.53-3.16-1.58-.64-.8-.95-1.76-.93-2.93h0s0-.02,0-.02c-.03-.69.16-1.37.55-2.01.3-.48.7-.71,1.23-.71m0-.35c-.65,0-1.16.29-1.52.87-.43.69-.64,1.45-.61,2.21-.01,1.2.3,2.26,1.01,3.15.9,1.12,2.05,1.71,3.44,1.71.2,0,.4-.01.61-.04.99-.12,1.88-.52,2.72-1.04.18-.11.37-.22.56-.34.34-.22.43-.46.32-.84-.19-.65-.55-1.22-.92-1.79-.79-1.22-1.79-2.24-3.04-3.01-.71-.44-1.46-.8-2.31-.89-.09,0-.17-.01-.25-.01h0Z"/>
  </g>
  <g>
    <path class="cls-1" d="m73.42,75.58c-5.48,2.44-10.95,2.31-11.38,2.29h0s0,0-.01,0c0,0-.01,0-.01,0h0c-.43.02-5.9.15-11.38-2.29,0,0-2.02.86-.44,2.71,0,0,6.26,6.48,11.82,9.78v.02s0,0,.01,0c0,0,0,0,.01,0v-.02c5.56-3.3,11.82-9.78,11.82-9.78,1.57-1.86-.44-2.71-.44-2.71Z"/>
    <path class="cls-3" d="m73.4,76.21c.19.13.43.34.49.61.09.37-.19.8-.44,1.1-.31.32-6.17,6.31-11.42,9.51-5.25-3.19-11.11-9.19-11.42-9.51-.25-.3-.52-.73-.44-1.1.06-.27.3-.48.49-.61,4.81,2.07,9.58,2.24,10.95,2.24.21,0,.35,0,.42,0h0s0,0,0,0c.07,0,.21,0,.42,0,1.37,0,6.14-.16,10.95-2.24m.03-.63c-4.78,2.13-9.54,2.3-10.97,2.3-.21,0-.35,0-.4,0h0s0,0-.01,0c0,0-.01,0-.01,0h0c-.06,0-.19,0-.4,0-1.43,0-6.2-.17-10.97-2.3,0,0-2.02.86-.44,2.71,0,0,6.26,6.48,11.82,9.78v.02s0,0,.01,0c0,0,0,0,.01,0v-.02c5.56-3.3,11.82-9.78,11.82-9.78,1.57-1.86-.44-2.71-.44-2.71h0Z"/>
  </g>
  <path class="cls-3" d="m61.97,85.52l-.09-.04c-1.42-.59-11.12-8.9-11.53-9.25l.23-.27c.1.08,9.7,8.3,11.35,9.15.92-.66,9.05-6.5,11.46-9.12l.26.24c-2.57,2.79-11.51,9.16-11.6,9.23l-.08.06Z"/>
  <path class="cls-3" d="m61.99,83.17l-.09-.04c-.88-.37-6.84-5.47-7.09-5.68l.23-.27c1.65,1.42,6,5.07,6.91,5.58.7-.5,5.53-3.98,6.98-5.56l.26.24c-1.58,1.72-6.9,5.51-7.12,5.67l-.08.06Z"/>
  <path class="cls-3" d="m62,80.71l-.09-.04c-.4-.17-2.94-2.34-3.23-2.59l.23-.27c1,.85,2.62,2.2,3.06,2.48.45-.32,2.47-1.79,3.09-2.46l.26.24c-.72.78-3.13,2.5-3.24,2.58l-.08.06Z"/>
</svg>